<svg width="133" height="73" viewBox="0 0 133 73" fill="none" xmlns="http://www.w3.org/2000/svg">
<path d="M5.20312 1.75H32.0625C37.3125 1.75 41.875 2.53125 45.75 4.09375C49.625 5.65625 52.6094 7.96875 54.7031 11.0312C56.8281 14.0937 57.8906 17.875 57.8906 22.375C57.8906 26.2812 57.2812 29.5469 56.0625 32.1719C54.8438 34.7969 53.1406 36.9688 50.9531 38.6875C48.7969 40.375 46.2812 41.7656 43.4062 42.8594L38.0156 45.9062H15.4688L15.375 33.2031H32.0625C34.1562 33.2031 35.8906 32.8281 37.2656 32.0781C38.6406 31.3281 39.6719 30.2656 40.3594 28.8906C41.0781 27.4844 41.4375 25.8125 41.4375 23.875C41.4375 21.9062 41.0781 20.2188 40.3594 18.8125C39.6406 17.4062 38.5781 16.3281 37.1719 15.5781C35.7969 14.8281 34.0938 14.4531 32.0625 14.4531H21.6562V70H5.20312V1.75ZM42.5625 70L27.4688 39.8125L44.9062 39.7188L60.1875 69.2969V70H42.5625ZM69.9525 1.75V70H53.5462V1.75H69.9525ZM123.921 34.5156V37.2812C123.921 42.5 123.186 47.1875 121.717 51.3438C120.28 55.4688 118.233 59 115.577 61.9375C112.921 64.8438 109.78 67.0781 106.155 68.6406C102.53 70.1719 98.53 70.9375 94.155 70.9375C89.7487 70.9375 85.7175 70.1719 82.0612 68.6406C78.4362 67.0781 75.28 64.8438 72.5925 61.9375C69.9362 59 67.8737 55.4688 66.405 51.3438C64.9675 47.1875 64.2487 42.5 64.2487 37.2812V34.5156C64.2487 29.2969 64.9675 24.6094 66.405 20.4531C67.8737 16.2969 69.9206 12.7656 72.5456 9.85938C75.2019 6.92187 78.3425 4.6875 81.9675 3.15625C85.6237 1.59375 89.655 0.8125 94.0612 0.8125C98.4362 0.8125 102.436 1.59375 106.061 3.15625C109.717 4.6875 112.874 6.92187 115.53 9.85938C118.186 12.7656 120.249 16.2969 121.717 20.4531C123.186 24.6094 123.921 29.2969 123.921 34.5156ZM107.233 37.2812V34.4219C107.233 31.0469 106.936 28.0781 106.342 25.5156C105.78 22.9219 104.936 20.75 103.811 19C102.686 17.25 101.296 15.9375 99.6394 15.0625C98.0144 14.1563 96.155 13.7031 94.0612 13.7031C91.8737 13.7031 89.9675 14.1563 88.3425 15.0625C86.7175 15.9375 85.3581 17.25 84.2644 19C83.1706 20.75 82.3425 22.9219 81.78 25.5156C81.2487 28.0781 80.9831 31.0469 80.9831 34.4219V37.2812C80.9831 40.625 81.2487 43.5938 81.78 46.1875C82.3425 48.75 83.1706 50.9219 84.2644 52.7031C85.3894 54.4844 86.7644 55.8281 88.3894 56.7344C90.0456 57.6406 91.9675 58.0938 94.155 58.0938C96.2487 58.0938 98.1081 57.6406 99.7331 56.7344C101.358 55.8281 102.717 54.4844 103.811 52.7031C104.936 50.9219 105.78 48.75 106.342 46.1875C106.936 43.5938 107.233 40.625 107.233 37.2812Z" fill="black"/>
<circle cx="113.5" cy="60.5" r="12.5" fill="#01C804"/>
</svg>
